<svg width="270" height="180" viewBox="0 0 270 180" fill="none" xmlns="http://www.w3.org/2000/svg">
<rect width="270" height="180" rx="8" fill="#E6E6E6"/>
<path d="M77.9995 72.3385C77.9668 72.0447 77.7054 71.9141 77.5094 71.9141C77.3133 71.9141 73.033 71.5876 73.033 71.5876C73.033 71.5876 70.0596 68.6168 69.7002 68.323C69.3734 67.9966 68.7526 68.0945 68.4912 68.1598C68.4586 68.1598 67.8378 68.3557 66.8248 68.6821C65.8119 65.7766 64.0802 63.1323 60.9761 63.1323H60.6821C59.8325 62.0223 58.7216 61.5 57.8067 61.5C50.6184 61.5 47.1549 70.4777 46.0766 75.0481C43.2666 75.9295 41.2735 76.5172 41.0448 76.6151C39.4764 77.1048 39.4437 77.1374 39.2477 78.6065C39.0843 79.7165 35 111.285 35 111.285L66.7922 117.227L84.0442 113.505C84.0769 113.44 78.0322 72.6323 77.9995 72.3385ZM65.0604 69.1392C64.2762 69.3677 63.3287 69.6615 62.3811 69.988V69.4003C62.3811 67.6375 62.1524 66.201 61.7276 65.0584C63.3614 65.2543 64.3743 67.0498 65.0604 69.1392ZM59.7345 65.4175C60.1593 66.5275 60.4533 68.0945 60.4533 70.2491V70.5756C58.6889 71.1306 56.8265 71.6856 54.8987 72.3058C55.977 68.1924 58.0354 66.1684 59.7345 65.4175ZM57.6433 63.3935C57.9701 63.3935 58.2968 63.5241 58.5582 63.7199C56.2383 64.7972 53.7878 67.5069 52.7749 72.9914C51.2392 73.4811 49.7688 73.9055 48.3638 74.3625C49.5401 70.1838 52.4808 63.3935 57.6433 63.3935Z" fill="black"/>
<path d="M77.5096 71.8489C77.3135 71.8489 73.0332 71.5224 73.0332 71.5224C73.0332 71.5224 70.0598 68.5516 69.7004 68.2578C69.5697 68.1272 69.4063 68.0619 69.2756 68.0619L66.8904 117.227L84.1425 113.505C84.1425 113.505 78.0977 72.6324 78.0651 72.3386C77.9344 72.0447 77.7056 71.9142 77.5096 71.8489Z" fill="#8E8E8E"/>
<path d="M60.9763 81.3816L58.8851 87.6822C58.8851 87.6822 56.99 86.6702 54.7355 86.6702C51.37 86.6702 51.2066 88.7922 51.2066 89.3145C51.2066 92.1874 58.7217 93.2974 58.7217 100.055C58.7217 105.376 55.3563 108.804 50.8145 108.804C45.3252 108.804 42.5806 105.409 42.5806 105.409L44.0509 100.577C44.0509 100.577 46.9263 103.059 49.3442 103.059C50.9452 103.059 51.5987 101.818 51.5987 100.904C51.5987 97.1496 45.4559 96.9864 45.4559 90.7836C45.4559 85.5929 49.1808 80.5654 56.7286 80.5654C59.5386 80.5328 60.9763 81.3816 60.9763 81.3816Z" fill="white"/>
<path d="M104.172 93.232C102.44 92.3179 101.558 91.5018 101.558 90.4245C101.558 89.0533 102.799 88.1719 104.727 88.1719C106.982 88.1719 108.975 89.086 108.975 89.086L110.543 84.287C110.543 84.287 109.105 83.1771 104.858 83.1771C98.9437 83.1771 94.8267 86.5722 94.8267 91.3386C94.8267 94.0482 96.7545 96.1049 99.3031 97.574C101.394 98.7166 102.113 99.5654 102.113 100.806C102.113 102.079 101.068 103.124 99.1397 103.124C96.2971 103.124 93.5851 101.655 93.5851 101.655L91.9187 106.454C91.9187 106.454 94.402 108.119 98.5843 108.119C104.662 108.119 109.073 105.115 109.073 99.7286C109.007 96.7905 106.818 94.7664 104.172 93.232ZM128.416 83.1118C125.41 83.1118 123.057 84.5482 121.26 86.7028L121.195 86.6702L123.809 73.0894H117.045L110.445 107.694H117.209L119.463 95.8764C120.345 91.4039 122.665 88.6289 124.822 88.6289C126.358 88.6289 126.946 89.6736 126.946 91.1427C126.946 92.0568 126.88 93.232 126.652 94.1461L124.103 107.694H130.867L133.513 93.7217C133.807 92.2526 134.003 90.4898 134.003 89.2819C133.971 85.397 131.978 83.1118 128.416 83.1118ZM149.295 83.1118C141.126 83.1118 135.735 90.4571 135.735 98.6513C135.735 103.875 138.97 108.119 145.047 108.119C153.053 108.119 158.444 100.969 158.444 92.5791C158.476 87.7148 155.666 83.1118 149.295 83.1118ZM145.962 102.961C143.642 102.961 142.695 101.002 142.695 98.5207C142.695 94.6358 144.688 88.3351 148.38 88.3351C150.765 88.3351 151.582 90.4245 151.582 92.4159C151.582 96.5619 149.524 102.961 145.962 102.961ZM175.794 83.1118C171.219 83.1118 168.638 87.1599 168.638 87.1599H168.573L168.965 83.5362H162.953C162.659 85.9846 162.103 89.7389 161.581 92.5138L156.908 117.292H163.672L165.567 107.27H165.73C165.73 107.27 167.135 108.151 169.684 108.151C177.656 108.151 182.852 99.9898 182.852 91.763C182.819 87.1925 180.76 83.1118 175.794 83.1118ZM169.324 103.026C167.56 103.026 166.514 102.014 166.514 102.014L167.625 95.7131C168.409 91.4691 170.631 88.6942 172.984 88.6942C175.075 88.6942 175.696 90.6203 175.696 92.4159C175.729 96.7904 173.115 103.026 169.324 103.026ZM192.491 73.4159C190.334 73.4159 188.602 75.1461 188.602 77.3334C188.602 79.3248 189.877 80.7286 191.804 80.7286H191.87C193.994 80.7286 195.791 79.2922 195.823 76.8111C195.856 74.8197 194.516 73.4159 192.491 73.4159ZM183.015 107.662H189.779L194.353 83.6341H187.557L183.015 107.662ZM211.605 83.6014H206.9L207.129 82.4915C207.521 80.1736 208.893 78.1496 211.18 78.1496C212.389 78.1496 213.337 78.5087 213.337 78.5087L214.644 73.1874C214.644 73.1874 213.5 72.5997 210.952 72.5997C208.566 72.5997 206.148 73.2853 204.319 74.8523C201.999 76.8111 200.921 79.6513 200.398 82.5241L200.202 83.6341H197.032L196.019 88.7595H199.189L195.595 107.694H202.358L205.952 88.7595H210.625L211.605 83.6014ZM227.91 83.6341C227.91 83.6341 223.662 94.3094 221.799 100.153H221.734C221.603 98.2595 220.068 83.6341 220.068 83.6341H212.945L217.029 105.638C217.094 106.127 217.062 106.421 216.866 106.747C216.081 108.282 214.742 109.751 213.173 110.828C211.899 111.742 210.461 112.363 209.318 112.754L211.213 118.5C212.585 118.206 215.461 117.064 217.846 114.811C220.917 111.938 223.793 107.466 226.733 101.394L235 83.6014H227.91V83.6341Z" fill="black"/>
</svg>
